<svg xmlns="http://www.w3.org/2000/svg" xmlns:xlink="http://www.w3.org/1999/xlink" width="500" zoomAndPan="magnify" viewBox="0 0 375 374.999991" height="500" preserveAspectRatio="xMidYMid meet" version="1.0"><path fill="#000000" d="M 324.671875 44.101562 C 300.203125 19.640625 267.667969 6.195312 233.074219 6.195312 C 198.457031 6.195312 165.921875 19.640625 141.441406 44.101562 C 116.960938 68.542969 103.480469 101.074219 103.480469 135.664062 C 103.480469 165.730469 113.703125 194.210938 132.445312 217.222656 L 107.433594 242.214844 L 101.734375 236.523438 L 25.855469 312.320312 L 56.226562 342.667969 L 132.082031 266.871094 L 126.40625 261.175781 L 151.417969 236.183594 C 174.449219 254.929688 202.949219 265.125 233.039062 265.125 C 267.65625 265.125 300.191406 251.65625 324.671875 227.191406 C 375.203125 176.714844 375.203125 94.582031 324.671875 44.101562 Z M 310.6875 213.195312 C 289.945312 233.921875 262.386719 245.320312 233.039062 245.320312 C 203.714844 245.320312 176.160156 233.910156 155.417969 213.195312 C 134.695312 192.492188 123.277344 164.957031 123.277344 135.652344 C 123.277344 106.351562 134.695312 78.792969 155.429688 58.089844 C 176.148438 37.363281 203.703125 25.964844 233.050781 25.964844 C 262.375 25.964844 289.933594 37.375 310.675781 58.089844 C 353.46875 100.871094 353.46875 170.457031 310.6875 213.195312 Z M 310.6875 213.195312 " fill-opacity="1" fill-rule="nonzero"/><path fill="#000000" d="M 233.050781 40.714844 C 207.667969 40.714844 183.828125 50.605469 165.878906 68.519531 C 163.175781 71.222656 163.175781 75.621094 165.878906 78.320312 C 168.582031 81.023438 172.984375 81.023438 175.6875 78.320312 C 191.011719 63.007812 211.386719 54.589844 233.050781 54.589844 C 254.742188 54.589844 275.101562 63.007812 290.4375 78.320312 C 291.777344 79.683594 293.558594 80.347656 295.347656 80.347656 C 297.105469 80.347656 298.886719 79.683594 300.257812 78.320312 C 302.960938 75.621094 302.960938 71.222656 300.257812 68.519531 C 282.296875 50.605469 258.433594 40.714844 233.050781 40.714844 Z M 233.050781 40.714844 " fill-opacity="1" fill-rule="nonzero"/><path fill="#000000" d="M 8.0625 330.121094 C 0.316406 337.839844 0.316406 350.386719 8.0625 358.09375 L 10.417969 360.46875 C 18.164062 368.1875 30.699219 368.1875 38.433594 360.46875 L 48.863281 350.046875 L 18.492188 319.699219 Z M 8.0625 330.121094 " fill-opacity="1" fill-rule="nonzero"/></svg>